<svg width="1728" height="704" viewBox="0 0 1728 704" fill="none" xmlns="http://www.w3.org/2000/svg">
    <path
        d="M0.927688 290.823C37.9422 453.375 118.743 595.996 285.331 649.901C398.107 685.427 526.063 677.952 626.968 613.275C808.779 508.942 887.797 308.897 1027.46 160.899C1164.44 18.1287 1301.45 -56.8324 1485.33 54.8048C1523.1 78.3733 1558.41 105.883 1590.53 136.682C1648.73 185.191 1695.37 245.847 1727.34 314.32C1694.15 265.556 1654.4 221.373 1609.4 183.034C1564.75 144.497 1516.93 109.705 1466.61 78.9927C1295.35 -15.1522 1182.87 59.119 1057.91 189.129C946.346 307.365 873.616 463.988 748.523 571.659C612.268 693.83 453.378 737.897 276.011 676.449C114.005 615.908 4.97699 463.2 0.649641 290.744"
        fill="#E7C1BA" />
</svg>