<svg width="98" height="98" viewBox="0 0 98 98" fill="none" xmlns="http://www.w3.org/2000/svg">
<rect width="98" height="98" rx="16" fill="#AB5E4F"/>
<path d="M60.036 83.0022C63.0664 78.723 66.9803 73.3121 65.4972 67.8203C64.7798 64.4627 62.0384 62.2531 59.174 60.6416C55.9775 58.9601 52.6526 57.5481 49.226 56.4164C43.2989 54.2067 37.0292 51.0809 33.9934 45.1849C32.3069 41.8488 31.75 38.0493 32.4193 34.3684C33.881 28.0843 38.9353 22.8943 44.9212 20.7925C39.7759 22.7327 35.6639 26.7424 33.5811 31.8623C32.173 35.1822 32.4139 39.0463 33.4687 42.4309C35.7978 49.5557 43.0366 53.0534 49.5633 55.5109C53.0221 56.6912 56.3845 58.1356 59.6291 59.8278C62.6595 61.4932 65.6632 63.9399 66.4235 67.5347C68.003 73.3822 63.9124 79.0464 60.0414 82.9968" fill="white"/>
<path d="M44.536 20.7983C40.0171 23.299 35.798 26.7967 33.2548 31.3454C30.8561 35.9425 30.7169 41.402 32.8747 46.1177C35.011 50.9089 39.8297 53.5389 44.4236 55.5761C47.3898 56.8641 50.5487 57.9097 53.5738 59.1762C55.4692 59.8822 57.2949 60.7553 59.035 61.7901C65.6206 65.6596 68.0032 73.6413 63.645 80.1571C61.7121 83.159 58.7727 85.3633 55.3567 86.3711C52.0639 87.4274 48.5677 87.3358 45.1838 86.8561C36.3763 85.5788 30.2779 79.9739 29.6033 70.8604C30.0637 73.4419 31.0435 75.8995 32.4731 78.093C35.3429 82.4638 40.3812 84.6087 45.4087 85.1046C50.5594 85.7136 56.3473 84.8782 60.1326 81.0841C62.4563 78.7505 64.1108 75.5168 63.8591 72.1539C63.6289 69.0765 62.0548 66.2579 59.5597 64.4632C57.0968 62.4422 54.0182 61.2349 51.1055 60.0008C44.6324 57.2684 36.6279 54.7892 32.6766 48.4621C29.4426 43.0889 29.373 36.3575 32.5159 30.9142C35.3269 26.3386 39.7654 23.0242 44.536 20.7983Z" fill="white"/>
<path d="M44.3485 20.9922C38.9087 23.9726 34.6254 28.3218 34.3845 34.8484C34.256 39.2569 35.8194 43.7732 39.155 46.7373C44.7287 52.2022 52.685 53.0052 59.3937 56.5137C65.8883 59.9791 69.9574 64.1343 67.8265 71.8681C67.366 73.4633 66.7396 75.0101 65.9632 76.476C64.8175 79.0575 63.1202 81.348 60.9946 83.1912C62.4027 81.5043 63.5806 79.6288 64.4962 77.6239C65.4225 75.6299 66.1828 73.5603 66.7717 71.4423C68.4047 64.3391 64.6086 61.057 58.6923 57.8934C53.3328 55.0909 46.9935 54.0723 41.8749 50.677C36.1246 47.0284 32.9389 41.7737 33.3404 34.7837C33.8651 28.3541 38.2234 22.8893 44.3485 20.9814" fill="white"/>
<path d="M51.2339 27.5347C49.5366 31.8785 49.8204 36.1038 54.1305 38.5668C55.3351 39.3374 57.1448 40.162 57.3644 41.7896C56.4702 40.4423 54.9443 40.2967 53.5683 39.6662C48.3266 37.5967 47.4699 31.4474 51.2339 27.5347Z" fill="white"/>
<path d="M52.38 18.68C52.8511 18.556 53.242 18.2327 53.4615 17.7961C53.59 17.3973 53.6061 16.6805 53.7667 16.217C54.1629 15.0799 54.8803 14.0882 55.828 13.3553C57.4825 11.76 59.8169 10.4019 62.2316 10.9085L63.3399 11.1187L62.4939 11.8948C61.83 12.4876 61.921 13.1828 61.9746 14.0397L62.0763 15.4679C62.2744 18.0818 61.2464 20.6417 59.2922 22.3825L59.2654 21.3909C59.8972 21.7358 60.4915 22.14 61.0483 22.5981C62.6706 24.1071 63.0722 26.4838 63.5915 28.521C64.2394 31.178 64.8337 33.8511 65.4494 36.5135C65.8885 38.4483 66.4078 40.5609 66.8951 42.4957C67.2056 43.8808 67.8106 45.2551 67.3769 46.7372C66.8736 48.327 64.8872 48.839 63.4523 48.2947C62.7349 47.9606 62.1834 47.3462 61.9371 46.5863L62.3654 46.818C61.1715 47.1845 60.0792 46.0689 59.9775 44.9317C60.197 45.8371 61.1072 46.3922 62.0014 46.1659C62.0603 46.1497 62.1245 46.1336 62.1834 46.112L62.4993 46.0204C62.6546 46.7102 63.1043 47.2923 63.7361 47.6156C64.7534 47.9929 66.3168 47.6641 66.6541 46.5C66.9968 45.282 66.3918 43.9347 66.0919 42.7113L65.5405 40.7334L64.4429 36.7776C63.72 34.1422 62.9009 31.5283 62.1727 28.8929C61.5998 26.9904 61.3214 25.0503 60.0739 23.579C59.6081 23.1316 59.0941 22.7382 58.5426 22.3987L57.8626 21.8975L58.5158 21.407C59.8972 20.3022 60.7217 18.6369 60.7646 16.8638C60.9787 14.9559 59.9454 12.4445 61.7497 11.0271L62.0067 12.0133C59.9186 11.5337 57.9965 12.687 56.4545 14.0721C55.6139 14.6757 54.9553 15.5003 54.5591 16.4596C54.3342 17.0362 54.4038 17.4889 54.1093 18.1195C53.7238 18.6854 53.0064 18.9117 52.3639 18.6692" fill="white"/>
</svg>
