<svg width="141" height="80" viewBox="0 0 141 80" fill="none" xmlns="http://www.w3.org/2000/svg">
<g clip-path="url(#clip0_33_74)">
<path d="M40.8201 60.7649C40.8201 56.1624 43.0742 53.8935 43.8826 53.8935C44.0861 53.8935 44.22 54.0983 44.22 54.3354C43.4597 56.3241 43.0527 58.4313 43.0099 60.5655C43.0099 63.1039 43.6471 64.4243 44.825 64.4243C46.3402 64.4243 48.7924 60.0589 48.7924 60.0589C48.7924 60.0589 48.9637 59.7895 49.0976 59.7895C49.2154 59.7841 49.3225 59.8703 49.3332 59.9943C49.3171 60.102 49.285 60.2044 49.2314 60.2961C48.6907 61.1745 46.1367 65.61 43.8826 65.61C42.3353 65.61 40.8201 63.9824 40.8201 60.7703M46.5062 48.4124C46.4526 49.2155 45.8744 49.8784 45.0927 50.04C44.5733 50.0239 44.1664 49.5873 44.1771 49.0646C44.1771 49.0376 44.1771 49.0161 44.1825 48.9891C44.2253 48.1214 44.825 47.3777 45.6602 47.1621C46.1314 47.1621 46.5008 47.6687 46.5008 48.4124" fill="white"/>
<path d="M50.7733 59.612C50.8376 63.2013 51.9834 64.7589 53.429 64.7589C55.244 64.7589 58.071 60.0539 58.071 60.0539C58.071 60.0539 58.237 59.7845 58.3762 59.7845C58.494 59.7791 58.6011 59.8653 58.6118 59.9893C58.5957 60.097 58.5583 60.1994 58.5101 60.2964C57.9747 61.1749 55.1852 65.9445 52.492 65.9445C50.6074 65.9445 48.6584 63.7079 48.6584 58.9707C48.6584 44.651 52.7919 40.8623 54.7086 40.8623C56.09 40.8623 56.5612 42.048 56.5612 43.5031C56.5612 49.7332 52.2886 57.1437 50.7787 59.6174M50.7787 58.6042C52.2243 55.9634 55.6884 49.0919 55.6884 43.4061C55.6884 42.3552 55.4154 41.7138 54.7461 41.7138C53.3326 41.7138 50.8429 46.9631 50.7787 58.6042Z" fill="white"/>
<path d="M57.3643 64.7208C57.4232 64.4621 57.6159 64.2573 57.8675 64.1818C58.0335 64.1818 58.6064 65.6693 60.459 65.6693C61.7921 65.5669 62.8255 64.4459 62.8148 63.0985C62.8148 61.1368 60.3947 57.7523 60.1912 56.9708C59.688 58.1511 59.1044 59.2936 58.4404 60.3877C58.2745 60.6572 58.2049 60.7596 58.071 60.7596C57.9693 60.7596 57.8354 60.6572 57.8354 60.5548C57.8354 60.42 57.905 60.3176 58.071 60.0482C58.8366 58.8409 59.4577 57.5475 59.9235 56.1894C59.8379 55.6396 59.779 55.0845 59.7576 54.5294C59.7576 52.2982 61.337 50.4658 61.8403 50.4658C62.0759 50.4658 62.1455 50.5682 62.1455 50.7353C62.1455 50.9024 61.4709 51.312 61.4709 53.6456C61.4709 55.9792 64.5335 59.1966 64.5335 61.4332C64.5335 64.5483 62.3168 66.2028 60.3947 66.2028C58.4726 66.2028 57.3696 65.0172 57.3696 64.7154" fill="white"/>
<path d="M75.6223 57.4781C75.6223 61.9136 73.0309 65.67 70.5091 65.67C68.5602 65.67 66.9807 64.1448 66.9807 61.5741C66.9807 57.1062 70.5466 53.8564 72.8328 53.8564C74.6479 53.8564 75.6223 55.1068 75.6223 57.4781ZM69.2669 61.6387C69.2669 63.3633 70.0058 64.5167 71.2158 64.5167C72.7311 64.5167 74.6479 61.2992 74.6479 57.4781C74.6479 55.6834 74.1071 54.5678 73.0309 54.5678C71.082 54.5678 69.2669 57.9847 69.2669 61.6441" fill="white"/>
<path d="M90.4207 57.1056C89.3124 57.1056 88.1345 59.5416 87.2939 61.4063C86.4533 63.2657 86.116 64.3866 85.6448 64.3866C85.0826 64.4244 84.5847 64.004 84.5365 63.4381C84.5365 62.7968 85.5431 56.599 85.5431 54.5672C85.5431 53.6887 85.3771 53.3815 84.9059 53.3815C83.8619 53.3815 81.7791 57.6822 81.1045 59.6116C80.5798 61.2177 80.2853 62.8938 80.2318 64.5861C80.2318 65.3621 79.1877 65.9765 78.92 65.9765C78.6523 65.9765 78.5506 65.9065 78.5506 65.7394C78.5506 65.5723 78.6523 65.098 78.6523 61.7081C78.6523 59.7841 78.5131 57.8601 78.2454 55.9576C78.331 55.5912 78.6202 55.3163 78.9842 55.2462C80.0925 55.2462 80.4299 59.0727 80.462 59.2074C80.5637 58.8679 82.9517 52.4707 85.0719 52.4707C86.2819 52.4707 87.326 53.4516 87.326 55.8876C87.2564 57.499 87.0904 59.105 86.8227 60.6949C86.8227 60.6949 88.7395 56.1948 90.924 56.1948C93.917 56.1948 92.8782 62.662 94.8593 62.662C96.4066 62.662 97.7505 60.5656 98.0557 60.059C98.0557 60.059 98.2217 59.7895 98.3609 59.7895C98.4787 59.7841 98.5858 59.8703 98.5965 59.9943C98.5804 60.1021 98.5429 60.2045 98.4948 60.3015C97.954 61.18 96.4441 63.686 94.0562 63.686C89.9549 63.686 92.0055 57.1164 90.4261 57.1164" fill="white"/>
<path d="M105.755 64.4888C106.291 65.378 106.558 66.3966 106.532 67.4314C106.532 73.0849 102.195 77.2832 98.1899 77.2832C96.514 77.4072 95.0577 76.1353 94.9345 74.4538C94.9292 74.3729 94.9238 74.2867 94.9238 74.2059C94.9238 71.2579 99.7693 68.2829 103.935 65.1679C103.362 63.6427 102.286 62.9366 101.247 62.9366C100.792 62.9851 100.348 63.1091 99.9353 63.3085C99.6997 63.3193 99.507 63.1307 99.4963 62.8989C99.4963 62.8881 99.4963 62.8774 99.4963 62.8666C99.4963 62.6294 100.101 62.3276 100.878 61.6486C102.157 60.533 104.106 58.8407 104.106 55.8927C104.181 55.3753 103.828 54.8957 103.314 54.8148C103.244 54.8041 103.169 54.8041 103.1 54.8094C101.686 54.8094 98.8645 59.6491 98.4254 60.3928C98.2595 60.6623 98.1899 60.7647 98.056 60.7647C97.9543 60.7647 97.8204 60.6623 97.8204 60.5599C97.8204 60.4252 97.89 60.3228 98.056 60.0533C98.5593 59.3419 101.252 53.5537 103.876 53.5537C105.423 53.5537 106.296 54.637 106.296 56.1622C106.296 59.1048 102.398 61.6109 101.622 62.0851C103.105 62.1552 104.486 62.8558 105.423 64.0145C106.896 62.942 108.149 61.6001 109.123 60.0533C109.123 60.0533 109.289 59.7838 109.423 59.7838C109.541 59.7785 109.648 59.8647 109.658 59.9886C109.642 60.0964 109.605 60.1988 109.557 60.2958C108.555 61.918 107.265 63.3408 105.755 64.4942M104.106 65.8146C100.139 68.8596 95.6681 71.6351 95.6681 74.1089C95.6681 75.3969 96.3052 76.3077 98.1577 76.3077C101.386 76.3077 104.31 72.1417 104.31 67.6416C104.32 67.0272 104.251 66.4128 104.106 65.8146Z" fill="white"/>
<path d="M117.561 57.4781C117.561 61.9136 114.969 65.67 112.448 65.67C110.499 65.67 108.919 64.1448 108.919 61.5741C108.919 57.1062 112.485 53.8564 114.771 53.8564C116.586 53.8564 117.561 55.1068 117.561 57.4781ZM111.205 61.6387C111.205 63.3633 111.944 64.5167 113.154 64.5167C114.67 64.5167 116.586 61.2992 116.586 57.4781C116.586 55.6834 116.046 54.5678 114.969 54.5678C113.02 54.5678 111.205 57.9847 111.205 61.6441" fill="white"/>
<path d="M125.228 65.265C124.024 65.3566 122.974 64.4512 122.883 63.244C122.878 63.1739 122.878 63.1039 122.878 63.0338C122.878 60.4954 124.827 57.8546 124.827 57.2456C124.827 56.6366 123.783 56.2647 122.61 55.4186C122.069 57.1702 121.298 58.8463 120.324 60.393C120.158 60.6625 120.088 60.7649 119.949 60.7649C119.847 60.7649 119.713 60.6625 119.713 60.5601C119.713 60.4253 119.778 60.323 119.949 60.0535C120.522 59.1373 121.834 56.7713 122.069 55.0791C120.961 54.2329 119.044 52.9449 119.044 50.6436C119.044 48.5471 120.42 47.4639 121.432 47.4639C122.744 47.4639 123.585 48.7519 123.585 50.4442C123.542 51.5329 123.365 52.6161 123.049 53.6617C124.629 54.9174 126.176 55.9629 126.176 56.7767C126.176 57.5905 125.035 60.1289 125.035 62.6997C125.035 63.7506 125.539 64.2895 126.176 64.2895C127.488 64.2895 130.213 60.0589 130.213 60.0589C130.213 60.0589 130.379 59.7894 130.513 59.7894C130.636 59.7786 130.738 59.8702 130.748 59.9942C130.732 60.102 130.695 60.2044 130.647 60.3014C130.111 61.1799 127.488 65.2758 125.234 65.2758M122.883 50.8538C122.883 49.2639 122.107 48.1483 121.502 48.1483C121.031 48.1483 120.495 48.6549 120.495 49.6358C120.495 51.9694 122.615 53.3599 122.615 53.3599C122.792 52.5353 122.883 51.6999 122.883 50.8538Z" fill="white"/>
<path d="M138.004 70.8165C137.945 67.4805 137.64 64.1553 137.093 60.8623C137.093 60.8623 133.865 65.7721 131.006 65.7721C130.133 65.7721 129.223 65.1307 129.223 63.5409C129.223 58.5287 135.61 53.1501 139.278 53.1501C140.161 53.0908 140.932 53.7645 140.991 54.6538C140.991 54.7077 140.991 54.7562 140.991 54.81C141.061 55.5538 140.729 56.276 140.119 56.7071C139.915 56.7071 139.851 56.6047 139.851 56.47C140.065 55.9903 140.167 55.4729 140.156 54.9448C140.156 54.2657 139.755 53.9639 139.112 53.9639C136.355 53.9639 131.343 59.2078 131.343 63.4762C131.343 64.0852 131.68 64.4247 132.082 64.4247C133.629 64.4247 135.782 61.5145 136.89 59.8545C137.998 58.1946 138.234 57.758 138.539 57.758C138.812 57.8119 139.01 58.0545 139.01 58.3347C139.348 62.1612 140.119 64.3277 140.119 70.7896C140.119 75.6616 137.425 80.0001 133.592 80.0001C132.012 80.0001 131.268 79.0192 131.268 78.7821C131.29 78.6042 131.429 78.4695 131.605 78.4425C132.082 78.9491 132.73 79.2617 133.421 79.321C136.751 79.321 137.993 75.2574 137.993 70.8273" fill="white"/>
<path d="M30.4327 72.2019C33.4632 67.9227 37.3771 62.5118 35.894 57.02C35.1765 53.6624 32.4352 51.4528 29.5707 49.8413C26.3743 48.1599 23.0494 46.7478 19.6227 45.6161C13.6957 43.4064 7.42594 40.2806 4.39014 34.3846C2.70358 31.0485 2.14675 27.249 2.81602 23.5681C4.2777 17.284 9.33202 12.0941 15.318 9.99219C10.1726 11.9324 6.06064 15.9421 3.97787 21.062C2.56973 24.3819 2.81067 28.2461 3.86543 31.6306C6.19449 38.7554 13.4333 42.2531 19.96 44.7106C23.4188 45.8909 26.7812 47.3353 30.0258 49.0276C33.0563 50.6929 36.0599 53.1397 36.8202 56.7344C38.3997 62.5819 34.3091 68.2461 30.4381 72.1965" fill="white"/>
<path d="M14.9327 9.99707C10.4138 12.4977 6.19475 15.9955 3.65153 20.5441C1.25287 25.1413 1.11366 30.6007 3.27139 35.3164C5.40769 40.1076 10.2264 42.7376 14.8203 44.7748C17.7865 46.0629 20.9454 47.1084 23.9705 48.3749C25.8659 49.0809 27.6917 49.954 29.4318 50.9888C36.0174 54.8584 38.4 62.8401 34.0417 69.3558C32.1088 72.3577 29.1694 74.562 25.7535 75.5698C22.4607 76.6261 18.9644 76.5345 15.5806 76.0548C6.773 74.7776 0.674623 69.1726 0 60.0591C0.460457 62.6406 1.44027 65.0982 2.86982 67.2917C5.73965 71.6625 10.7779 73.8075 15.8055 74.3033C20.9561 74.9123 26.744 74.0769 30.5294 70.2828C32.8531 67.9492 34.5075 64.7156 34.2559 61.3526C34.0256 58.2752 32.4515 55.4566 29.9565 53.6619C27.4936 51.6409 24.4149 50.4337 21.5023 49.1995C15.0291 46.4671 7.02464 43.988 3.07328 37.6608C-0.160625 32.2876 -0.230228 25.5562 2.91266 20.113C5.72359 15.5374 10.1622 12.2229 14.9327 9.99707Z" fill="white"/>
<path d="M14.7452 10.1914C9.30534 13.1718 5.02202 17.521 4.78108 24.0476C4.65258 28.4561 6.21599 32.9724 9.55163 35.9366C15.1253 41.4014 23.0816 42.2044 29.7903 45.7129C36.2849 49.1783 40.354 53.3335 38.2231 61.0673C37.7626 62.6626 37.1362 64.2093 36.3599 65.6752C35.2141 68.2567 33.5168 70.5472 31.3912 72.3904C32.7993 70.7035 33.9773 68.828 34.8928 66.8232C35.8191 64.8291 36.5794 62.7596 37.1683 60.6415C38.8013 53.5383 35.0053 50.2562 29.0889 47.0926C23.7294 44.2901 17.3901 43.2715 12.2715 39.8762C6.52118 36.2276 3.33546 30.9729 3.73702 23.9829C4.26173 17.5534 8.62 12.0885 14.7452 10.1807" fill="white"/>
<path d="M21.6307 16.7344C19.9334 21.0782 20.2172 25.3035 24.5273 27.7665C25.732 28.5371 27.5417 29.3617 27.7612 30.9893C26.8671 29.642 25.3411 29.4965 23.9651 28.8659C18.7234 26.7964 17.8667 20.6471 21.6307 16.7344Z" fill="white"/>
<path d="M22.7768 7.87922C23.248 7.75526 23.6388 7.4319 23.8583 6.99536C23.9868 6.59654 24.0029 5.87975 24.1635 5.41627C24.5597 4.2791 25.2772 3.28746 26.2249 2.5545C27.8793 0.95924 30.2137 -0.398886 32.6284 0.107716L33.7367 0.317903L32.8908 1.09397C32.2269 1.68681 32.3179 2.38204 32.3714 3.23895L32.4732 4.66714C32.6713 7.28099 31.6433 9.84096 29.689 11.5817L29.6622 10.5901C30.294 10.935 30.8883 11.3392 31.4452 11.7973C33.0675 13.3063 33.469 15.6831 33.9884 17.7202C34.6362 20.3772 35.2306 23.0504 35.8463 25.7127C36.2853 27.6475 36.8047 29.7601 37.2919 31.6949C37.6024 33.08 38.2075 34.4543 37.7738 35.9364C37.2705 37.5263 35.2841 38.0382 33.8492 37.4939C33.1317 37.1598 32.5803 36.5454 32.334 35.7855L32.7623 36.0172C31.5683 36.3837 30.4761 35.2681 30.3743 34.1309C30.5939 35.0364 31.5041 35.5915 32.3982 35.3651C32.4571 35.3489 32.5214 35.3328 32.5803 35.3112L32.8961 35.2196C33.0514 35.9094 33.5012 36.4915 34.133 36.8149C35.1502 37.1921 36.7137 36.8634 37.051 35.6993C37.3936 34.4813 36.7886 33.1339 36.4888 31.9105L35.9373 29.9326L34.8397 25.9768C34.1169 23.3414 33.2977 20.7275 32.5695 18.0921C31.9966 16.1897 31.7182 14.2495 30.4707 12.7782C30.0049 12.3309 29.4909 11.9374 28.9394 11.5979L28.2595 11.0967L28.9127 10.6062C30.294 9.50142 31.1186 7.8361 31.1614 6.06299C31.3756 4.15515 30.3422 1.64369 32.1466 0.226283L32.4036 1.21254C30.3154 0.732886 28.3933 1.88622 26.8513 3.27129C26.0107 3.8749 25.3521 4.69948 24.9559 5.65879C24.7311 6.23545 24.8007 6.68816 24.5062 7.31872C24.1207 7.88461 23.4032 8.11096 22.7607 7.86844" fill="white"/>
</g>
<defs>
<clipPath id="clip0_33_74">
<rect width="141" height="80" fill="white"/>
</clipPath>
</defs>
</svg>
